<?xml version="1.0" standalone="no"?>
<!DOCTYPE svg PUBLIC "-//W3C//DTD SVG 20010904//EN"
 "http://www.w3.org/TR/2001/REC-SVG-20010904/DTD/svg10.dtd">
<svg version="1.0" xmlns="http://www.w3.org/2000/svg"
 width="736.000000pt" height="414.000000pt" viewBox="0 0 736.000000 414.000000"
 preserveAspectRatio="xMidYMid meet">

<g transform="translate(0.000000,414.000000) scale(0.100000,-0.100000)"
fill="#000000" stroke="none">
<path d="M1329 2582 c-54 -35 -77 -65 -124 -164 -41 -85 -60 -209 -50 -318 8
-81 44 -339 51 -362 4 -12 -7 -23 -38 -39 -62 -32 -179 -153 -212 -220 -37
-78 -49 -167 -35 -285 5 -52 16 -113 24 -134 23 -65 90 -172 137 -218 191
-190 670 -262 937 -141 129 58 228 172 274 316 50 154 56 221 32 338 -21 101
-66 183 -144 267 l-69 74 44 172 c79 312 80 455 6 603 -41 80 -68 106 -128
119 -109 25 -201 -57 -261 -233 -37 -109 -53 -225 -53 -394 l0 -153 -25 0 -25
0 0 193 c0 287 -19 386 -92 496 -55 83 -84 103 -150 108 -46 4 -59 0 -99 -25z
m124 -26 c43 -18 71 -50 101 -116 50 -109 57 -160 64 -420 l7 -245 68 -3 c37
-2 67 -2 68 0 0 2 4 104 9 228 7 199 11 235 34 313 44 148 88 211 160 227 80
18 135 -22 177 -127 20 -50 23 -75 23 -183 -1 -113 -5 -140 -42 -280 -23 -85
-48 -175 -57 -199 -8 -24 -15 -49 -15 -55 0 -6 31 -46 68 -89 123 -141 164
-234 163 -373 -1 -86 -38 -222 -84 -307 -38 -73 -114 -137 -216 -184 -66 -31
-88 -36 -209 -46 -213 -17 -329 3 -499 84 -260 124 -381 423 -269 662 40 85
115 161 194 198 37 18 68 33 70 35 4 3 -19 180 -47 369 -16 105 -17 146 -10
213 14 129 76 246 154 293 36 23 46 23 88 5z"/>
<path d="M1266 1164 c-18 -46 1 -84 41 -84 31 0 48 36 34 73 -8 21 -17 27 -40
27 -17 0 -31 -6 -35 -16z"/>
<path d="M1932 1128 c-17 -17 -15 -63 2 -78 8 -6 25 -10 38 -8 18 2 24 10 26
36 5 52 -34 82 -66 50z"/>
<path d="M1556 961 c-3 -5 11 -22 31 -39 l37 -29 -37 -12 c-34 -12 -48 -33
-29 -45 4 -2 29 2 54 11 45 14 48 14 91 -11 24 -14 47 -26 50 -26 18 0 4 37
-20 56 l-28 22 27 11 c30 11 44 29 32 41 -5 5 -28 0 -53 -11 l-43 -19 -41 30
c-42 31 -62 37 -71 21z"/>
</g>
</svg>
